<svg xmlns="http://www.w3.org/2000/svg" viewBox="0 0 256 120.96024">
  <title>FreshySites lettermark logo</title>
  <g>
    <path d="M256,78.99736c0,14.98678-12.48729,24.73991-28.54376,24.73991-17.48313,0-29.2579-11.30027-29.2579-25.09624H212.589c.12033,6.30418,6.185,12.13164,15.22352,12.13164,8.32593,0,13.6781-4.757,13.6781-11.17988,0-5.71032-4.87556-9.04056-11.77477-10.94241l-10.22763-2.85514c-17.60194-4.51951-20.69446-15.1048-20.69446-22.24189,0-14.51016,12.72639-23.90621,27.82958-23.90621,14.986,0,26.76076,9.27729,26.76076,24.6204H238.99349c0-6.78-5.11465-11.65659-12.72644-11.65659-7.01636,0-12.84514,4.28194-12.84514,10.70488,0,2.25971.71413,7.1363,10.11048,9.5156l9.75264,2.61605C246.1286,59.016,256,65.91479,256,78.99736Zm-56.73291-54.1862a30.63082,30.63082,0,0,1,4.434-4.21114l.00241-.002H150.91719V102.548h14.50938V68.76914h27.83119V55.8045H165.42657V33.56256h28.67032a28.12783,28.12783,0,0,1,1.57347-3.49273c.056-.10528.10959-.21188.167-.31637a28.86589,28.86589,0,0,1,3.31817-4.80833C199.1932,24.9008,199.22909,24.85529,199.26709,24.81116Z" style="fill: #00b140"/>
    <g>
      <path d="M103.35747,17.84845a60.47354,60.47354,0,1,0-.268,85.5314l.01378.0206a60.48942,60.48942,0,0,0,.27484-85.53126ZM96.04642,96.25969a50.43361,50.43361,0,1,1,.22678-71.33217l.00094.00093A50.44678,50.44678,0,0,1,96.04642,96.25969Z" style="fill: #00b140"/>
      <path d="M57.67779,56.43145a1.20918,1.20918,0,0,0,1.566-.98486S48.32116,23.5218,44.21114,18.67022c-1.685-1.98291-15.60089,5.19526-14.23969,8.72482C29.97145,27.395,43.35882,44.07131,57.67779,56.43145ZM41.62093,37.8119C40.04825,32.696,56.91134,53.50335,56.91134,53.50335S43.19357,42.92782,41.62093,37.8119Zm5.14084-6.21313c.29072-1.32187,8.27291,17.1853,7.85666,16.52426S46.44456,32.89432,46.76177,31.59877Zm5.88748,15.16267s-11.068-16.326-11.32571-20.23887S52.64925,46.76144,52.64925,46.76144ZM63.24817,63.788h-.01981a1.20956,1.20956,0,0,0-1.50663,1.07739s12.74639,31.24405,17.12733,35.851c1.79731,1.89038,15.27716-6.08092,13.71777-9.53776C92.58,91.17863,78.25442,75.31531,63.24817,63.788ZM69.14885,74.5486H69.129c0-3.48332,12.29051,20.87343,12.29051,20.87343S69.14885,78.0253,69.14885,74.5486Zm7.1893,5.56538h-.01981c.23124-2.31341,6.958,11.13732,6.958,11.13732S76.1069,82.434,76.33815,80.114ZM63.42651,56.27278a1.20959,1.20959,0,0,0,.99119,1.55993c18.22428-5.03658,37.466-14.3761,37.466-14.3761,2.74226-2.64385-6.36327-15.31468-8.73541-14.23724C87.35989,31.84341,63.42651,56.27278,63.42651,56.27278ZM93.16814,42.03554l-.00662.00662c-.03967,1.69208-17.0811,8.40752-17.0811,8.40752S93.20781,40.34345,93.16814,42.03554Zm-.84585-8.36128c-.77965,3.45684-18.69335,17.5686-18.69335,17.5686S93.09542,30.23061,92.32229,33.67426ZM86.79757,48.65261l.00063-.00079v.00667l-.00063-.00588c-.46318,1.03222-17.13327,5.1019-17.13327,5.1019S87.172,47.65843,86.79757,48.65261ZM57.88526,62.73955a1.28539,1.28539,0,0,0-.20747.0636s-23.854,26.33966-26.17333,32.6585c-1.27529,3.47013,13.8763,11.50091,16.38726,8.38776,0,0,7.76409-20.49,11.51734-40.1275A1.28189,1.28189,0,0,0,57.88526,62.73955Zm-11.4407,38.35357c-1.229-1.72508,3.42286-16.75555,3.42286-16.75555S47.667,102.82488,46.44456,101.09312Zm-.90523-12.61125v-.01324c-.66079-1.09057,7.40731-14.4091,7.40731-14.4091S46.22655,89.57245,45.53933,88.48187Zm-6.52189,1.76476v-.01319C37.947,88.53478,56.48836,67.38372,56.48836,67.38372S40.08135,91.93214,39.01744,90.24663ZM57.017,62.49914a1.20943,1.20943,0,0,0-.98451-1.56651S22.57075,72.764,17.70741,76.86862c-1.94927,1.68547,5.61,15.63193,9.1319,14.31C26.83931,91.17863,44.69354,76.81571,57.017,62.49914Zm-16.57888,8.9363s-12.12527,4.75234-12.95121,3.89315S40.43812,71.43544,40.43812,71.43544Zm-15.34983,7.773c-.66074-.5684,16.47316-7.09883,16.47316-7.09883S25.72265,79.77029,25.08829,79.20845Zm18.20443-7.19793s-9.10558,6.45766-10.75745,6.25936S43.29272,72.01052,43.29272,72.01052ZM30.14988,85.44805c-2.57049.0991,19.90917-18.57331,19.90917-18.57331S32.72027,85.34229,30.14988,85.44805ZM59.509,65.15887a1.2081,1.2081,0,0,0-.12857.16613s-3.57952,32.3844-2.0189,38.54672c1.02046,4.02941,16.37176,2.09235,16.635-1.67821,0,0-5.01388-19.85238-12.77875-37.1024A1.209,1.209,0,0,0,59.509,65.15887Zm.81187,8.46435c.46254-3.71457.69383,27.8335.69383,27.8335S59.8716,77.33131,60.32091,73.62322ZM64.02782,78.726c.46259-8.35461,4.17613,23.19341,4.17613,23.19341S63.58514,87.07394,64.04773,78.726Zm-1.15633,8.1167c.23129-5.79667,1.15633,14.61407,1.15633,14.61407a96.3196,96.3196,0,0,1-1.13647-14.61407Zm-6.81262-28.0978h.00662l.39649.07929a1.28256,1.28256,0,0,0,.9119-1.73175S32.26435,34.61945,25.98037,32.3061c-3.47571-1.27569-11.31252,13.03432-8.19367,15.55259a275.49718,275.49718,0,0,0,27.52139,8.48685c-10.0108-1.88381-24.1382-4.2765-28.06323-3.58908-4.68491.81961-3.70034,16.92742.03967,17.51569,0,0,20.70216-3.79395,38.55633-10.0137A1.223,1.223,0,0,0,56.05887,58.74485ZM38.21131,47.938h.01319s-4.62538-4.10459-5.55051-5.55871,13.81686,9.57081,14.8609,11.50744c0,0-14.3785-6.60967-15.19787-8.52648S38.21131,47.938,38.21131,47.938Zm6.61438,11.55377s-9.78613-1.8639-10.394-2.168S43.46449,57.99134,44.82569,59.49175Zm-1.81051.8658s-22.46642.31073-23.41131-1.01124S43.01518,60.35765,43.01518,60.35755Zm.27754.65442v.00662s-12.013,2.743-13.024,1.5797S43.29272,61.012,43.29272,61.012Zm-21.581,5.605c-1.03743-1.15667,25.843-5.66447,25.843-5.66447S22.72271,67.78688,21.71172,66.617ZM30.03754,48.48h.01976c-1.32158-2.11511,23.04792,8.92973,23.04792,8.92973S31.37888,50.59511,30.03754,48.48Zm74.13406-.07081c-6.71416-.456-39.812,10.046-39.812,10.046a1.27582,1.27582,0,0,0,.13671,1.98006c19.48992,4.53188,40.79157,5.73783,40.79157,5.73783C109.14708,65.10214,107.859,48.63191,104.1716,48.40915Zm-6.78109,5.58332c.32377,1.09058-26.50378,4.92425-26.50378,4.92425S97.0733,52.89523,97.39051,53.99247Zm-20.82773,5.4067s22.93557,2.88848,22.86953,3.66843S76.56278,59.39917,76.56278,59.39917Zm3.69377-.304s19.82331-4.04516,20.36509-2.33983S80.25655,59.09516,80.25655,59.09516Zm23.30559,10.93245A265.2128,265.2128,0,0,0,64.32522,61.316a1.28221,1.28221,0,0,0-.81275,1.78462s26.332,20.98576,32.76789,22.93562C99.82218,87.11366,106.81981,72.38063,103.56214,70.02761Zm-33.019-4.99034-.01976-.01319c-3.71358-4.17736,23.6558,13.92,24.81214,14.84536C95.34209,79.88263,74.25006,69.21462,70.54309,65.03727Zm13.44685,3.2454-.01985-.01329c3.01317-.66094,14.14721,6.266,14.14721,6.266S80.97677,68.98327,83.98994,68.28267Zm-22.49946-12.889a1.24208,1.24208,0,0,0,1.42068.39C76.17957,42.3065,87.7762,25.432,87.7762,25.432c1.06385-3.63537-13.49966-9.47829-15.01287-7.35661-2.53072,3.48332-6.84567,19.00948-9.41606,28.7654,1.82369-9.91455,4.48666-25.69848,3.80606-29.90884-.66079-4.10463-16.12958-3.523-16.7176.21806a259.00556,259.00556,0,0,0,9.47549,38.07187A1.21554,1.21554,0,0,0,61.49048,55.39368Zm19.97526-26.875c1.13657,1.50036-15.62737,22.11606-15.62737,22.11606S80.32922,27.01831,81.46574,28.51872Zm-8.53716,3.17263c.50216.79318-8.01524,19.51841-8.01524,19.51841S72.42632,30.90484,72.92858,31.69135ZM60.63806,22.81457c1.18943-.75351,1.32158,18.441,1.32158,18.441S59.44868,23.56809,60.63806,22.81457Zm-5.60338.21144C56.45536,21.757,59.5214,47.96446,59.5214,47.96446S53.61405,24.29512,55.03468,23.026Zm4.94259,12.79641c.97138-.79981.29083,13.33176.29083,13.33176s-1.26873-12.532-.28421-13.33176Z" style="fill: #dbe442"/>
    </g>
  </g>
</svg>
